<svg width="42" height="50" viewBox="0 0 42 50" fill="currentColor" xmlns="http://www.w3.org/2000/svg" id='asteroid'>

	<path fill-rule="evenodd" clip-rule="evenodd"
		d="M18.2139 27.3414C12.4104 23.9914 4.97765 25.9828 1.62765 31.7862C-1.72408 37.5897 0.267301 45.0224 6.07075 48.3724C11.8759 51.7242 19.307 49.7328 22.6587 43.9293C26.0087 38.1242 24.0173 30.6931 18.2139 27.3414ZM17.3518 28.8345C22.3311 31.7104 24.0397 38.0862 21.1656 43.0673C18.2897 48.0466 11.9139 49.7552 6.93282 46.8793C1.95351 44.0052 0.244887 37.6276 3.12075 32.6483C5.99489 27.669 12.3725 25.9604 17.3518 28.8345ZM17.2397 36.5483C15.0311 35.2724 12.2018 36.0311 10.9259 38.2397C9.65006 40.45 10.4087 43.2793 12.6173 44.5552C14.8276 45.8293 17.657 45.0724 18.9328 42.8621C20.207 40.6535 19.4501 37.8242 17.2397 36.5483ZM16.3776 38.0414C17.7639 38.8414 18.238 40.6155 17.4397 42C16.6397 43.3862 14.8656 43.8604 13.4794 43.0621C12.0949 42.2621 11.619 40.4879 12.419 39.1017C13.219 37.7173 14.9932 37.2414 16.3776 38.0414ZM27.1138 36.2104L40.519 12.9931C40.757 12.5811 40.6156 12.0535 40.2035 11.8155C39.7914 11.5776 39.2638 11.719 39.0259 12.1311L25.6207 35.3483C25.3828 35.7604 25.5242 36.2879 25.9363 36.5259C26.3483 36.7638 26.8759 36.6224 27.1138 36.2104ZM8.28454 31.3776C6.9742 30.6224 5.29661 31.0707 4.53971 32.3828C3.78282 33.6931 4.23282 35.3707 5.54316 36.1276C6.85351 36.8845 8.53282 36.4345 9.28799 35.1242C10.0449 33.8138 9.59661 32.1345 8.28454 31.3776ZM7.42247 32.8707C7.9104 33.1517 8.07592 33.7759 7.79489 34.2621C7.51558 34.7483 6.89144 34.9155 6.40523 34.6345C5.91902 34.3535 5.75178 33.731 6.03282 33.2448C6.31385 32.7569 6.93627 32.5914 7.42247 32.8707ZM25.1052 31.2311L39.6759 5.99312C39.9139 5.58105 39.7725 5.05347 39.3604 4.81554C38.9483 4.5776 38.4207 4.71898 38.1828 5.13105L23.6121 30.369C23.3742 30.7811 23.5156 31.3086 23.9276 31.5466C24.3397 31.7845 24.8673 31.6431 25.1052 31.2311ZM22.088 27.0569L34.1949 6.08623C34.4328 5.67416 34.2914 5.14657 33.8794 4.90864C33.4673 4.67071 32.9397 4.81209 32.7018 5.22416L20.5949 26.1948C20.357 26.6069 20.4983 27.1345 20.9104 27.3724C21.3225 27.6104 21.8501 27.469 22.088 27.0569ZM7.57592 24.9311L20.9811 1.71209C21.219 1.30002 21.0776 0.772432 20.6656 0.534501C20.2535 0.29657 19.7259 0.437949 19.488 0.850018L6.08282 24.069C5.84489 24.4811 5.98627 25.0086 6.39833 25.2466C6.8104 25.4845 7.33799 25.3431 7.57592 24.9311ZM18.1294 24.5104L31.5345 1.29312C31.7725 0.881052 31.6311 0.353466 31.219 0.115535C30.807 -0.122396 30.2794 0.0189835 30.0414 0.431052L16.6363 23.6483C16.3983 24.0604 16.5397 24.5879 16.9518 24.8259C17.3639 25.0638 17.8914 24.9224 18.1294 24.5104ZM12.8932 24.1793L26.0535 1.3845C26.2914 0.972432 26.1501 0.444846 25.738 0.206915C25.3259 -0.0310165 24.7983 0.110363 24.5604 0.522432L11.4001 23.3173C11.1621 23.7293 11.3035 24.2569 11.7156 24.4948C12.1276 24.7328 12.6552 24.5914 12.8932 24.1793Z" />
</svg>