<svg width="42" height="36" viewBox="0 0 42 36" fill="none" xmlns="http://www.w3.org/2000/svg">
	<path
		d="M19.2679 0.999999C20.0377 -0.333334 21.9623 -0.333333 22.7321 1L40.9186 32.5C41.6884 33.8333 40.7261 35.5 39.1865 35.5H2.81347C1.27387 35.5 0.311616 33.8333 1.08142 32.5L19.2679 0.999999Z"
		fill="#FFC107" />
	<path
		d="M23.6477 11.5455L23.2045 23.5455H19.3182L18.875 11.5455H23.6477ZM21.2614 29.2727C20.6023 29.2727 20.0369 29.0426 19.5653 28.5824C19.0994 28.1165 18.8693 27.5511 18.875 26.8864C18.8693 26.2386 19.0994 25.6847 19.5653 25.2244C20.0369 24.7642 20.6023 24.5341 21.2614 24.5341C21.8864 24.5341 22.4375 24.7642 22.9148 25.2244C23.3977 25.6847 23.642 26.2386 23.6477 26.8864C23.642 27.3295 23.5256 27.733 23.2983 28.0966C23.0767 28.4545 22.7869 28.7415 22.429 28.9574C22.071 29.1676 21.6818 29.2727 21.2614 29.2727Z"
		fill="#333333" />
</svg>