<svg width="48" height="50" viewBox="0 0 48 50" fill="currentColor" xmlns="http://www.w3.org/2000/svg" id="distance">
<path d="M1.99094 13.018L1.72094 13.838C1.64094 14.088 1.66094 14.368 1.78094 14.598C1.90094 14.838 2.11094 15.018 2.36094 15.098L14.0509 18.918C14.1509 18.948 14.2609 18.968 14.3609 18.968C14.7809 18.968 15.1709 18.698 15.3109 18.278L15.5309 17.598L22.3509 19.828L9.19094 48.578C8.96094 49.078 9.18094 49.678 9.68094 49.908C9.81094 49.968 9.96094 49.998 10.1009 49.998C10.4809 49.998 10.8409 49.778 11.0109 49.418L22.7209 23.818V48.998C22.7209 49.548 23.1709 49.998 23.7209 49.998C24.2709 49.998 24.7209 49.548 24.7209 48.998V23.818L36.4309 49.418C36.6009 49.788 36.9609 49.998 37.3409 49.998C37.4809 49.998 37.6209 49.968 37.7609 49.908C38.2609 49.678 38.4809 49.088 38.2509 48.578L25.5809 20.888L31.3709 22.778C31.4709 22.808 31.5809 22.828 31.6809 22.828C32.1009 22.828 32.4909 22.558 32.6309 22.138L32.8209 21.548L38.5209 23.418C38.6209 23.448 38.7309 23.468 38.8309 23.468C39.2509 23.468 39.6409 23.198 39.7809 22.778L39.8309 22.618L45.5309 24.488C45.6309 24.518 45.7409 24.538 45.8409 24.538C46.2609 24.538 46.6509 24.268 46.7909 23.848L48.2909 19.258C48.4609 18.738 48.1809 18.168 47.6509 17.998L41.9509 16.128L42.0009 15.968C42.0809 15.718 42.0609 15.438 41.9409 15.208C41.8209 14.968 41.6109 14.788 41.3609 14.708L35.6609 12.838L35.8509 12.248C35.9309 11.998 35.9109 11.718 35.7909 11.488C35.6709 11.248 35.4609 11.068 35.2109 10.988L19.3709 5.808L19.5909 5.128C19.7609 4.608 19.4809 4.038 18.9509 3.868L7.28094 0.048C7.03094 -0.032 6.75094 -0.012 6.52094 0.108C6.28094 0.228 6.10094 0.438 6.02094 0.688L5.75094 1.508C3.57094 1.418 1.35094 3.268 0.410941 6.138C-0.519059 8.998 0.180941 11.798 1.99094 13.018ZM46.1009 19.588L45.2209 22.278L40.4709 20.718L41.3509 18.028L46.1009 19.588ZM38.2009 21.208L33.4509 19.648L35.0609 14.738L39.8109 16.298L38.2009 21.208ZM18.7709 7.718L33.6609 12.588L33.4709 13.178L32.9309 14.818L31.0509 20.568L16.1509 15.698L17.4609 11.708L18.7709 7.718ZM17.4009 5.458L17.1809 6.138L15.5609 11.078L13.7209 16.698L3.93094 13.498L7.61094 2.248L17.4009 5.458ZM2.32094 6.748C2.85094 5.118 3.97094 3.888 5.08094 3.578L2.67094 10.938C1.96094 10.038 1.78094 8.388 2.32094 6.748Z" />

</svg>
