<svg width="48" height="50" viewBox="0 0 48 50" fill="currentColor" xmlns="http://www.w3.org/2000/svg" id="orbit">

	<path
		d="M31.4138 33.2351C33.3297 31.3055 34.5216 28.7669 34.7866 26.0518C35.0517 23.3368 34.3734 20.6132 32.8673 18.3451C31.3612 16.077 29.1206 14.4048 26.527 13.6133C23.9335 12.8217 21.1476 12.9599 18.644 14.0043C16.1403 15.0486 14.0738 16.9345 12.7965 19.3406C11.5192 21.7468 11.1102 24.5243 11.6391 27.2C12.168 29.8757 13.6021 32.284 15.697 34.0146C17.792 35.7453 20.4182 36.6912 23.1283 36.6912C24.6679 36.6957 26.193 36.3926 27.6153 35.7993C29.0376 35.2061 30.3287 34.3345 31.4138 33.2351ZM14.0137 24.8943C14.0135 23.3853 14.383 21.8995 15.0895 20.5686C15.7959 19.2377 16.8176 18.1028 18.0639 17.2643C19.3102 16.4259 20.7427 15.9098 22.2344 15.7618C23.7262 15.6138 25.2312 15.8385 26.6161 16.4159C28.001 16.9934 29.2231 17.9057 30.174 19.0722C31.125 20.2387 31.7755 21.6233 32.0678 23.1033C32.3602 24.5833 32.2855 26.113 31.8502 27.557C31.415 29.001 30.6327 30.3147 29.5726 31.3816C27.8366 33.0502 25.5286 33.9813 23.1283 33.9813C20.728 33.9813 18.42 33.0502 16.684 31.3816C15.835 30.5317 15.1618 29.5207 14.7034 28.4072C14.2451 27.2936 14.0107 26.0996 14.0137 24.8943Z" />
	<path
		d="M5.6342 40.6516C5.51327 40.7733 5.41734 40.9177 5.35189 41.0767C5.28644 41.2357 5.25276 41.4062 5.25276 41.5783C5.25276 41.7504 5.28644 41.9209 5.35189 42.0799C5.41734 42.2389 5.51327 42.3833 5.6342 42.505C8.89591 45.7927 13.0062 48.0962 17.5004 49.1553C21.9946 50.2144 26.6935 49.9868 31.0659 48.4981C35.4383 47.0095 39.3099 44.3193 42.2429 40.7315C45.1759 37.1438 47.0534 32.8016 47.6632 28.1958C48.273 23.5901 47.5908 18.9045 45.6936 14.6686C43.7964 10.4328 40.76 6.81569 36.9275 4.2262C33.095 1.63672 28.6194 0.17812 24.0065 0.0152995C19.3937 -0.147521 14.8275 0.991927 10.8243 3.30484C9.57139 2.24311 7.97355 1.68377 6.33657 1.73387C4.69959 1.78396 3.13845 2.43997 1.95191 3.57635C1.09567 4.42411 0.488143 5.49307 0.196096 6.66578C-0.0959511 7.83848 -0.0612177 9.06953 0.29648 10.2237C0.654177 11.3778 1.32099 12.4103 2.22366 13.2078C3.12632 14.0052 4.22989 14.5368 5.4131 14.744C6.59632 14.9512 7.81338 14.8261 8.93054 14.3824C10.0477 13.9386 11.0217 13.1935 11.7456 12.2288C12.4695 11.2641 12.9152 10.1171 13.0337 8.91406C13.1523 7.71097 12.9391 6.49827 12.4175 5.40921C16.0171 3.40499 20.1004 2.45039 24.209 2.65255C28.3176 2.85471 32.2889 4.20563 35.6771 6.55368C39.0654 8.90174 41.7365 12.154 43.3906 15.9454C45.0447 19.7367 45.6163 23.9172 45.0414 28.0174C44.4664 32.1177 42.7676 35.9755 40.1356 39.1578C37.5036 42.3401 34.0425 44.721 30.141 46.0331C26.2395 47.3453 22.0519 47.5368 18.0483 46.5862C14.0446 45.6356 10.3834 43.5805 7.47561 40.6515C7.35473 40.5297 7.21119 40.4332 7.05321 40.3673C6.89523 40.3014 6.7259 40.2674 6.55489 40.2674C6.38388 40.2675 6.21455 40.3014 6.05658 40.3673C5.8986 40.4332 5.75508 40.5298 5.6342 40.6516ZM9.31665 10.9904C8.57248 11.7053 7.58341 12.1041 6.55481 12.1041C5.52622 12.1041 4.53715 11.7053 3.79298 10.9904C3.2466 10.4405 2.87448 9.73987 2.72368 8.97706C2.57289 8.21425 2.6502 7.42355 2.94583 6.70497C3.24146 5.98639 3.74213 5.3722 4.38453 4.94007C5.02693 4.50795 5.7822 4.2773 6.55481 4.2773C7.32743 4.2773 8.0827 4.50795 8.7251 4.94007C9.3675 5.3722 9.86817 5.98639 10.1638 6.70497C10.4594 7.42355 10.5367 8.21425 10.3859 8.97706C10.2352 9.73987 9.86303 10.4405 9.31665 10.9904Z" />
</svg>